<?xml version="1.0" encoding="UTF-8" standalone="no"?>
<!-- Created with Inkscape (http://www.inkscape.org/) -->
<svg xmlns:svg="http://www.w3.org/2000/svg" xmlns="http://www.w3.org/2000/svg" version="1.0" width="500.00003" height="500.00003" id="svg1895">
  <defs id="defs1897"/>
  <g transform="translate(-122.047,-276.181)" id="layer1" style="opacity:1">
    <path d="M 239.31084,251.3965 A 18.991734,18.991734 0 1 1 201.32737,251.3965 A 18.991734,18.991734 0 1 1 239.31084,251.3965 z" transform="matrix(13.032,0,0,13.032,-2499.1516,-2750.0182)" id="path26760" style="opacity:1;fill:#465274;fill-opacity:1;fill-rule:nonzero;stroke:#262d48;stroke-width:0.38367096;stroke-linejoin:miter;stroke-miterlimit:4;stroke-dasharray:none;stroke-opacity:1"/>
    <path d="M 240.92639,257.40594 A 18.916666,18.916666 0 1 1 203.09305,257.40594 A 18.916666,18.916666 0 1 1 240.92639,257.40594 z" transform="matrix(11.2203,0,0,11.2203,-2118.9686,-2362.0036)" id="path12507" style="fill:#473f4d;fill-opacity:1;fill-rule:nonzero;stroke:#262d48;stroke-width:0.44562089;stroke-linejoin:miter;stroke-miterlimit:4;stroke-dasharray:none;stroke-opacity:1"/>
    <path d="M 263.06355,454.93151 C 261.89682,454.77782 258.07844,454.301 254.57826,453.8719 C 242.86645,452.43609 230.45114,449.13366 219.59911,444.56758 C 169.59039,423.52603 145.03912,372.43812 160.97663,322.58206 C 169.77997,295.04328 191.05271,272.08751 219.93003,258.96443 C 228.87458,254.89964 234.84885,252.87761 248.79208,249.19576 C 262.22152,245.6496 269.53301,243.18655 277.66558,239.46907 C 305.8515,226.58497 327.36331,203.27945 336.21254,176.04042 C 340.81319,161.87931 342.19615,142.39617 339.54414,129.10691 C 333.89733,100.81016 318.25231,78.451206 293.2481,62.943082 C 275.8981,52.182267 254.12289,45.720931 228.8364,43.830219 C 223.62325,43.440419 219.24265,43.006234 219.1018,42.865351 C 218.96087,42.724459 222.74891,42.180058 227.51955,41.655562 C 238.11901,40.490235 262.64374,40.467247 272.25593,41.613637 C 307.33013,45.79669 337.05067,56.546467 365.59403,75.373496 C 409.68291,104.45427 440.96461,149.09107 453.66517,201.0447 C 460.03068,227.08417 461.0393,258.35278 456.39396,285.64197 C 446.95091,341.1147 414.93559,390.89826 368.0689,422.98664 C 348.67084,436.26798 329.12577,445.2759 304.42929,452.31687 C 295.68457,454.80996 295.42853,454.83881 280.38766,455.02386 C 272.02612,455.12673 264.23027,455.08517 263.06355,454.9315 L 263.06355,454.93151 z M 295.2369,433.41883 C 307.55265,432.35342 316.75501,429.12418 337.66331,418.53077 C 355.96323,409.25889 367.43442,400.80648 383.66216,384.63692 C 400.69127,367.66887 410.54155,354.13405 420.39813,334.15979 C 428.6792,317.37815 432.91908,304.89965 437.12304,284.93486 C 439.11475,275.47625 439.13313,275.15928 439.13313,250.28663 C 439.13313,223.37451 438.96604,221.52752 435.14095,206.15753 C 428.6874,180.22593 417.43797,156.37171 401.49384,134.80946 C 393.82272,124.43531 374.17201,105.10868 363.11915,97.067539 C 353.54153,90.099666 347.0032,85.849014 346.56324,86.304278 C 346.41058,86.462203 347.86736,90.091591 349.80045,94.369587 C 358.44666,113.50393 360.23331,120.87383 360.78959,139.70044 C 361.60764,167.38743 357.59453,184.65384 345.60525,205.0318 C 339.53432,215.35041 334.64736,221.58296 325.33851,230.87901 C 315.52267,240.68134 307.42311,246.94354 296.74615,252.98528 C 286.58772,258.73358 280.39516,261.17825 258.8209,267.95721 C 248.70928,271.13442 237.47215,274.86317 233.8495,276.24328 C 210.42659,285.16668 191.8405,302.56536 183.51198,323.36495 C 178.89465,334.89612 178.28618,338.40262 178.27876,353.52422 C 178.27232,366.6018 178.37308,367.64096 180.23235,373.67677 C 183.85556,385.43845 189.76061,395.63509 198.00972,404.37399 C 211.88146,419.06939 231.24332,428.60021 255.63892,432.74184 C 264.24279,434.20251 282.5582,434.51565 295.2369,433.41884 L 295.2369,433.41883 z" transform="translate(122.047,276.181)" id="path3290" style="opacity:1;fill:#e3a86e;fill-opacity:1;fill-rule:nonzero;stroke:none;stroke-width:1;stroke-miterlimit:4;stroke-dasharray:none;stroke-dashoffset:0;stroke-opacity:1"/>
    <g id="g4577">
      <path d="M 263.84136,433.19278 C 226.32623,429.17107 198.46885,412.04122 185.29562,384.89403 C 180.39428,374.79345 178.28144,365.30379 178.28144,353.39053 C 178.28144,327.9395 189.82761,305.32959 210.95416,289.41026 C 222.41367,280.77525 230.72873,277.13993 256.06319,269.68871 C 274.25386,264.33858 282.62976,261.30332 291.41853,256.87665 C 314.72371,245.13842 334.84775,226.08215 347.19476,204.0598 C 357.54411,185.60053 361.31087,171.57579 361.91905,149.23727 C 362.52667,126.92141 359.47975,112.26925 350.4548,94.106679 C 348.70068,90.576413 347.37111,87.582304 347.50037,87.453094 C 347.85922,87.094251 361.33668,96.369802 368.30812,101.77346 C 376.01049,107.74374 391.42089,123.04994 397.77658,131.04269 C 414.01974,151.46975 428.05915,176.93023 433.49587,202.46048 C 436.86043,218.26009 438.80329,225.45148 438.83099,249.48308 C 438.84711,263.47016 438.2786,270.56391 437.53783,278.82801 C 435.57179,300.76131 428.72198,316.19509 420.12667,333.62878 C 410.38048,353.39688 400.03183,367.65495 383.41213,384.21322 C 366.67463,400.88884 352.89538,410.65951 331.67044,420.90266 C 320.5451,426.27175 307.7335,430.19008 302.20711,431.47101 C 294.80165,433.18745 273.30358,434.20713 263.84136,433.19276 L 263.84136,433.19278 z" transform="translate(122.047,276.181)" id="path3288" style="opacity:1;fill:#bc7443;fill-opacity:1;fill-rule:nonzero;stroke:#610000;stroke-width:5;stroke-miterlimit:4;stroke-dasharray:none;stroke-dashoffset:0;stroke-opacity:1"/>
      <path d="M 291.93408,160.58878 A 36.36549,35.355339 0 1 1 219.2031,160.58878 A 36.36549,35.355339 0 1 1 291.93408,160.58878 z" transform="translate(146.70026,464.3115)" id="path3166" style="fill:none;fill-opacity:1;fill-rule:nonzero;stroke:#610000;stroke-width:5;stroke-miterlimit:4;stroke-dasharray:none;stroke-dashoffset:0;stroke-opacity:1"/>
    </g>
    <path d="M 291.93408,160.58878 A 36.36549,35.355339 0 1 1 219.2031,160.58878 A 36.36549,35.355339 0 1 1 291.93408,160.58878 z" transform="translate(82.306857,265.26175)" id="path3164" style="fill:none;fill-opacity:1;fill-rule:nonzero;stroke:#262d48;stroke-width:5;stroke-miterlimit:4;stroke-dasharray:none;stroke-dashoffset:0;stroke-opacity:1"/>
    <path d="M 319.46983,320.83788 C 492.73101,307.16673 506.51668,494.51514 371.31633,524.42704 C 226.53227,556.45925 253.37105,753.90998 430.09904,730.02418" id="path3256" style="fill:none;fill-rule:evenodd;stroke:#262d48;stroke-width:5;stroke-linecap:butt;stroke-linejoin:miter;stroke-miterlimit:4;stroke-dasharray:none;stroke-opacity:1"/>
  </g>
</svg>